<?xml version="1.0" ?><!DOCTYPE svg  PUBLIC '-//W3C//DTD SVG 1.1//EN'  'http://www.w3.org/Graphics/SVG/1.1/DTD/svg11.dtd'><svg enable-background="new 0 0 512 512" height="512px" id="Layer_1" version="1.1" viewBox="0 0 512 512" width="512px" xml:space="preserve" xmlns="http://www.w3.org/2000/svg" xmlns:xlink="http://www.w3.org/1999/xlink"><path d="M256,0C40.15,0,0,40.15,0,256c0,215.451,39.281,256,256,256c215.029,0,256-40.549,256-256  C512,39.492,471.722,0,256,0z" fill="#CD2027"/><path d="M3.288,169h505.437C497.027,42.902,450.149,7.053,308.666,1L203.613,1C61.905,7.087,15.005,43.216,3.288,169  z" fill="#CD2027"/><path d="M0,256c0,194.215,31.926,246.305,196.963,254.687L153.737,35.301L50.836,43.46  C10.717,79.875,0,144.492,0,256z" fill="#E22B26"/><path d="M511.983,248.753c-0.006-1.358-0.013-2.712-0.023-4.056c-0.004-0.545-0.008-1.087-0.013-1.629  c-0.011-1.402-0.024-2.796-0.04-4.182c-0.005-0.428-0.009-0.857-0.014-1.284c-0.02-1.706-0.043-3.403-0.07-5.086  c-0.001-0.086-0.002-0.172-0.004-0.258c-0.091-5.698-0.217-11.261-0.382-16.692c-0.001-0.041-0.003-0.082-0.004-0.122  c-0.055-1.799-0.114-3.585-0.177-5.356L109.809,13.279C44.698,31.112,16.203,70.194,5.511,149.329l495.333,243.807  c0.251-1.066,0.497-2.142,0.739-3.226c0.066-0.298,0.13-0.602,0.196-0.901c0.173-0.788,0.345-1.577,0.513-2.375  c0.083-0.393,0.162-0.792,0.244-1.188c0.147-0.713,0.294-1.427,0.437-2.147c0.087-0.439,0.171-0.883,0.257-1.324  c0.133-0.686,0.266-1.372,0.395-2.065c0.087-0.468,0.172-0.941,0.258-1.413c0.123-0.676,0.246-1.353,0.366-2.036  c0.086-0.487,0.169-0.979,0.253-1.469c0.116-0.678,0.231-1.358,0.344-2.043c0.082-0.5,0.163-1.003,0.244-1.506  c0.11-0.683,0.218-1.369,0.325-2.058c0.08-0.515,0.158-1.032,0.236-1.551c0.103-0.685,0.205-1.372,0.305-2.063  c0.077-0.532,0.154-1.066,0.229-1.603c0.098-0.693,0.194-1.389,0.288-2.089c0.073-0.535,0.145-1.07,0.216-1.608  c0.094-0.714,0.186-1.432,0.277-2.152c0.068-0.537,0.136-1.074,0.203-1.615c0.089-0.728,0.177-1.462,0.263-2.197  c0.064-0.54,0.128-1.08,0.19-1.624c0.086-0.756,0.17-1.519,0.254-2.282c0.058-0.531,0.117-1.061,0.174-1.596  c0.084-0.793,0.165-1.593,0.247-2.393c0.052-0.514,0.106-1.026,0.157-1.543c0.084-0.852,0.164-1.712,0.245-2.571  c0.045-0.476,0.091-0.948,0.134-1.427c0.09-0.99,0.177-1.99,0.263-2.991c0.031-0.355,0.063-0.706,0.093-1.063  c0.229-2.73,0.443-5.502,0.642-8.314c0.033-0.464,0.063-0.934,0.095-1.399c0.065-0.944,0.13-1.888,0.191-2.842  c0.035-0.55,0.068-1.107,0.103-1.661c0.055-0.881,0.11-1.762,0.162-2.651c0.035-0.594,0.067-1.194,0.101-1.792  c0.048-0.855,0.096-1.709,0.141-2.571c0.033-0.627,0.064-1.259,0.096-1.89c0.043-0.847,0.085-1.695,0.126-2.549  c0.03-0.645,0.059-1.295,0.089-1.944c0.038-0.847,0.076-1.694,0.112-2.548c0.028-0.668,0.055-1.34,0.082-2.013  c0.034-0.848,0.067-1.697,0.098-2.551c0.025-0.682,0.05-1.367,0.074-2.053c0.03-0.849,0.058-1.701,0.086-2.557  c0.023-0.707,0.045-1.416,0.067-2.128c0.026-0.851,0.05-1.705,0.074-2.563c0.02-0.714,0.039-1.429,0.058-2.147  c0.023-0.878,0.044-1.761,0.065-2.645c0.017-0.707,0.033-1.414,0.048-2.126c0.019-0.904,0.037-1.815,0.055-2.726  c0.014-0.709,0.028-1.417,0.04-2.129c0.016-0.922,0.03-1.851,0.045-2.779c0.011-0.711,0.022-1.42,0.032-2.135  c0.013-0.954,0.024-1.915,0.035-2.877c0.008-0.701,0.017-1.399,0.024-2.104c0.01-1.023,0.018-2.055,0.026-3.086  c0.005-0.649,0.011-1.294,0.015-1.947c0.007-1.149,0.012-2.309,0.017-3.468c0.002-0.55,0.006-1.095,0.008-1.648  c0.005-1.714,0.008-3.439,0.008-5.176c0-1.889-0.004-3.76-0.01-5.622C511.988,249.834,511.985,249.295,511.983,248.753z" fill="#B42025"/><path d="M197.703,510.724l313.512-208.19C511.758,288.01,512,272.521,512,256c0-21.71-0.406-41.635-1.353-59.924  L74.96,485.397C104.065,500.729,143.818,508.037,197.703,510.724z" fill="#EF3831"/><path d="M292.372,0.443l180.791,454.764c24.357-30.804,34.691-77.159,37.774-145.896L392.222,10.693  C365.139,4.519,332.236,1.491,292.372,0.443z" fill="#B42025"/><path d="M175.526,509.285C199.169,511.214,225.867,512,256,512c2.863,0,5.688-0.009,8.49-0.023L274.688,0.109  C268.608,0.036,262.384,0,256,0c-25.912,0-49.284,0.581-70.367,1.973L175.526,509.285z" fill="#E22B26"/><path d="M0.019,248.392l441.67-219.278c-32.11-18.651-77.958-26.377-142.773-28.482L5.965,146.075  C1.88,174.569,0.203,208.371,0.019,248.392z" fill="#CD2027"/><path d="M4.392,354.109l507.555-111.094c-0.28-34.543-1.731-64.346-4.96-90.021L0.02,263.958  C0.184,298.432,1.441,328.288,4.392,354.109z" fill="#E22B26"/><path d="M75.082,26.63C47.5,41.187,29.434,62.983,17.953,94.947L446.27,479.571  c25.031-16.21,41.17-39.827,51.187-73.652L75.082,26.63z" fill="#E22B26"/><path d="M4.348,158.708C1.214,186.312,0,218.502,0,256c0,170.466,24.595,231.439,142.204,249.471L4.348,158.708z" fill="#B42025"/><path d="M256.912,0.001C256.607,0.001,256.306,0,256,0c-35.571,0-66.372,1.072-93.013,3.835L32.433,446.276  c16.799,25.938,41.549,42.329,77.375,52.252L256.912,0.001z" fill="#CD2027"/><g><g><path d="M286.953,308.563c-2.778,0-5.597,1.345-8.421,4.153v57.485c2.826,2.854,5.645,4.199,8.421,4.199    c4.879,0,7.358-4.199,7.358-12.719v-40.247C294.311,312.929,291.831,308.563,286.953,308.563z" fill="#FFFFFF"/><path d="M252.045,215.199c8.563,0,15.219-3.258,19.939-9.755c3.585-4.771,5.303-12.277,5.303-22.413v-33.372    c0-10.183-1.717-17.632-5.303-22.448c-4.719-6.519-11.376-9.766-19.939-9.766c-8.509,0-15.152,3.247-19.878,9.766    c-3.63,4.818-5.35,12.267-5.35,22.448v33.372c0,10.136,1.719,17.642,5.35,22.413C236.892,211.938,243.535,215.199,252.045,215.199    z M243.901,146.197c0-8.815,2.643-13.216,8.143-13.216c5.509,0,8.156,4.401,8.156,13.216v40.092    c0,8.815-2.647,13.229-8.156,13.229c-5.501,0-8.143-4.414-8.143-13.229V146.197z" fill="#FFFFFF"/><path d="M184.923,162.092v51.797h18.949v-51.797L226.663,86h-19.155l-12.929,50.229L181.131,86h-19.932    c3.99,11.86,8.145,23.769,12.14,35.631C179.42,139.476,183.203,152.92,184.923,162.092z" fill="#FFFFFF"/><path d="M349.688,308.563c-5.651,0-8.475,4.366-8.475,13.087v8.72h16.902v-8.72    C358.115,312.929,355.283,308.563,349.688,308.563z" fill="#FFFFFF"/><path d="M391.02,260.619c-3.42-15.026-15.589-26.113-30.23-27.766c-34.691-3.925-69.801-3.938-104.751-3.925    c-34.956-0.011-70.066,0-104.751,3.925c-14.647,1.653-26.812,12.74-30.225,27.766c-4.879,21.426-4.932,44.792-4.932,66.849    c0,22.045,0,45.423,4.872,66.836c3.42,15.038,15.576,26.126,30.225,27.779c34.684,3.915,69.795,3.938,104.751,3.915    c34.951,0.024,70.06,0,104.751-3.915c14.642-1.653,26.817-12.742,30.23-27.779c4.879-21.415,4.909-44.792,4.911-66.836    C395.868,305.412,395.892,282.045,391.02,260.619z M195.913,279.893h-20.249v108.748h-18.802V279.893h-19.885v-17.821h58.936    L195.913,279.893L195.913,279.893z M246.996,388.639h-16.919V378.35c-6.714,7.793-13.099,11.587-19.315,11.587    c-5.449,0-9.204-2.236-10.891-7.018c-0.93-2.856-1.489-7.351-1.489-14.014v-74.568h16.896v69.429c0,3.998,0,6.092,0.159,6.639    c0.407,2.651,1.696,3.996,3.955,3.996c3.392,0,6.94-2.641,10.687-7.995v-72.069h16.919v94.301H246.996z M311.211,360.335    c0,8.722-0.577,15.002-1.7,19c-2.262,7.018-6.781,10.601-13.517,10.601c-6.008,0-11.817-3.379-17.462-10.444v9.148h-16.906    V262.072h16.906v41.343c5.455-6.792,11.247-10.231,17.462-10.231c6.738,0,11.257,3.581,13.517,10.648    c1.125,3.794,1.7,10.029,1.7,18.951V360.335z M375.015,344.601h-33.804v16.715c0,8.733,2.826,13.087,8.628,13.087    c4.16,0,6.59-2.285,7.556-6.852c0.153-0.928,0.364-4.724,0.364-11.576h17.255v2.499c0,5.494-0.207,9.29-0.359,11.003    c-0.57,3.783-1.9,7.209-3.949,10.244c-4.683,6.841-11.617,10.22-20.444,10.22c-8.851,0-15.579-3.224-20.462-9.66    c-3.59-4.711-5.432-12.159-5.432-22.177v-33.038c0-10.076,1.629-17.44,5.225-22.211c4.879-6.458,11.617-9.671,20.244-9.671    c8.481,0,15.213,3.213,19.943,9.671c3.536,4.771,5.232,12.135,5.232,22.211V344.6L375.015,344.601L375.015,344.601z" fill="#FFFFFF"/><path d="M303.861,215.199c6.232,0,12.712-3.82,19.515-11.709v10.399h17.085v-95.304h-17.085v72.844    c-3.785,5.412-7.369,8.09-10.782,8.09c-2.296,0-3.637-1.379-4.014-4.044c-0.207-0.572-0.207-2.677-0.207-6.723v-70.167h-17.031    v75.366c0,6.723,0.577,11.279,1.517,14.169C294.562,212.937,298.365,215.199,303.861,215.199z" fill="#FFFFFF"/></g><g opacity="0.5"><polygon fill="#660E0E" points="202.04,107.243 181.253,86.456 194.579,136.229   "/><path d="M198.381,294.337v74.568c0,6.663,0.56,11.158,1.489,14.014c1.687,4.782,5.443,7.018,10.891,7.018    c6.215,0,12.6-3.794,19.315-11.587v10.289h16.919h0.002v-94.301h-16.919v72.068c-3.747,5.354-7.295,7.995-10.687,7.995    c-2.26,0-3.549-1.345-3.955-3.996c-0.159-0.547-0.159-2.641-0.159-6.639v-69.429H198.381z" fill="#660E0E"/><polygon fill="#660E0E" points="175.664,388.641 175.664,279.893 195.913,279.893 195.913,262.072 136.977,262.072     136.977,279.893 156.862,279.893 156.862,388.641   "/><path d="M511.607,289.936L340.461,118.79v95.098h-17.085v-10.399c-6.803,7.889-13.282,11.709-19.515,11.709    c-5.496,0-9.299-2.262-11.001-7.079c-0.94-2.89-1.517-7.446-1.517-14.169v-47.272l-19.112-19.112    c3.413,4.824,5.055,12.151,5.055,22.092v33.372c0,10.136-1.717,17.642-5.303,22.413c-4.719,6.497-11.376,9.755-19.939,9.755    c-8.509,0-15.152-3.26-19.878-9.755c-3.63-4.771-5.35-12.277-5.35-22.413v-33.372c0-10.181,1.719-17.629,5.35-22.448    c4.726-6.519,11.369-9.766,19.878-9.766c2.361,0,4.571,0.256,6.642,0.75l-32.063-32.063l-22.753,75.959v51.797h-18.689    l15.614,15.614c18.401-0.574,36.843-0.58,55.242-0.575c34.95-0.013,70.061,0,104.751,3.925c14.64,1.653,26.81,12.74,30.23,27.766    c4.872,21.426,4.849,44.792,4.851,66.849c-0.002,22.043-0.032,45.421-4.911,66.836c-3.413,15.036-15.587,26.126-30.23,27.779    c-34.692,3.915-69.8,3.938-104.751,3.915c-34.957,0.024-70.067,0-104.751-3.915c-5.853-0.66-11.294-2.847-15.953-6.17l95.89,95.89    C239.172,511.936,247.447,512,256,512C459.22,512,506.975,475.782,511.607,289.936z" fill="#660E0E"/><polygon fill="#660E0E" points="226.492,86 225.601,85.109 224.71,86   "/><path d="M261.162,116.497l-1.85,1.85c2.479,0.661,4.737,1.695,6.786,3.085L261.162,116.497z" fill="#660E0E"/><path d="M261.625,262.072v126.569h16.906v-9.148c5.645,7.065,11.453,10.444,17.462,10.444    c6.736,0,11.255-3.583,13.517-10.601c1.123-3.998,1.7-10.278,1.7-19v-37.552c0-8.922-0.575-15.157-1.7-18.951    c-2.26-7.067-6.779-10.648-13.517-10.648c-6.215,0-12.006,3.439-17.462,10.231v-41.343H261.625z M286.953,308.563    c4.879,0,7.358,4.366,7.358,12.871v40.247c0,8.52-2.479,12.719-7.358,12.719c-2.776,0-5.595-1.345-8.421-4.199v-57.485    C281.355,309.908,284.174,308.563,286.953,308.563z" fill="#660E0E"/><path d="M308.581,195.474c0.377,2.664,1.717,4.044,4.014,4.044c3.413,0,6.996-2.677,10.782-8.089v-57.373    l-15.002-15.002v69.697C308.374,192.797,308.374,194.902,308.581,195.474z" fill="#660E0E"/><path d="M252.045,132.981c-5.501,0-8.143,4.401-8.143,13.216v40.092c0,8.815,2.643,13.229,8.143,13.229    c5.509,0,8.156-4.414,8.156-13.229v-40.092C260.201,137.382,257.554,132.981,252.045,132.981z" fill="#660E0E"/><path d="M369.779,302.853c-4.73-6.458-11.462-9.671-19.943-9.671c-8.628,0-15.366,3.213-20.244,9.671    c-3.596,4.771-5.225,12.135-5.225,22.211v33.038c0,10.018,1.842,17.466,5.432,22.177c4.883,6.437,11.61,9.66,20.462,9.66    c8.828,0,15.762-3.379,20.444-10.22c2.049-3.034,3.379-6.46,3.949-10.244c0.153-1.713,0.359-5.509,0.359-11.003v-2.498h-17.255    c0,6.852-0.211,10.648-0.364,11.576c-0.966,4.567-3.396,6.852-7.556,6.852c-5.802,0-8.628-4.354-8.628-13.086v-16.715h33.804v0    h-0.004v-19.536C375.011,314.988,373.315,307.624,369.779,302.853z M358.115,330.369h-16.902v-8.72    c0-8.72,2.823-13.086,8.475-13.086c5.595,0,8.427,4.366,8.427,13.086V330.369z" fill="#660E0E"/><polygon fill="#660E0E" points="340.255,118.584 339.965,118.294 339.675,118.584   "/></g></g></svg>