<svg id="Layer_1" enable-background="new 0 0 512 512" height="512" viewBox="0 0 512 512" width="512" xmlns="http://www.w3.org/2000/svg"><g><path d="m437.02 74.98c-48.353-48.351-112.64-74.98-181.02-74.98s-132.667 26.629-181.02 74.98c-48.351 48.352-74.98 112.64-74.98 181.02s26.629 132.668 74.98 181.02c48.353 48.351 112.64 74.98 181.02 74.98s132.667-26.629 181.02-74.98c48.351-48.352 74.98-112.64 74.98-181.02s-26.629-132.668-74.98-181.02zm-340.826 340.826c-42.686-42.686-66.194-99.439-66.194-159.806s23.508-117.12 66.194-159.806 99.439-66.194 159.806-66.194 117.12 23.508 159.806 66.194 66.194 99.439 66.194 159.806-23.508 117.12-66.194 159.806-99.439 66.194-159.806 66.194-117.12-23.508-159.806-66.194z"/><path d="m275.277 165.44h30v163.541h-30z"/><path d="m211.744 229.921h-62.413v-64.481h-30v163.541h30v-69.06h62.413v69.06h30v-163.541h-30z"/><path d="m365.918 308.459c-10.908 0-19.751 8.843-19.751 19.751 0 10.909 8.843 19.751 19.751 19.751s19.751-8.843 19.751-19.751c.001-10.908-8.842-19.751-19.751-19.751z"/><path d="m351.048 149.039h30v140.218h-30z"/></g></svg>